
<svg width="20px" height="23px" viewBox="0 0 20 23" version="1.1" xmlns="http://www.w3.org/2000/svg" xmlns:xlink="http://www.w3.org/1999/xlink">
    <g id="Symbols" stroke="none" stroke-width="1" fill="none" fill-rule="evenodd">
        <g id="Contact-deets" transform="translate(0.000000, -133.000000)" fill="currentColor">
            <path d="M18.7096774,145.717391 L1.29032258,145.717391 L1.29032258,135.826087 C1.29032258,135.046087 1.8683871,134.413043 2.58064516,134.413043 L17.4193548,134.413043 C18.1316129,134.413043 18.7096774,135.046087 18.7096774,135.826087 L18.7096774,145.717391 L18.7096774,145.717391 Z M18.7096774,148.543478 C18.7096774,149.323478 18.1316129,149.956522 17.4193548,149.956522 L2.58064516,149.956522 C1.8683871,149.956522 1.29032258,149.323478 1.29032258,148.543478 L1.29032258,147.130435 L18.7096774,147.130435 L18.7096774,148.543478 L18.7096774,148.543478 Z M9.03225806,151.369565 L11.6129032,151.369565 L11.6129032,154.195652 L9.03225806,154.195652 L9.03225806,151.369565 Z M17.4193548,133 L2.58064516,133 C1.15548387,133 0,134.26538 0,135.826087 L0,148.543478 C0,150.104185 1.15548387,151.369565 2.58064516,151.369565 L7.74193548,151.369565 L7.74193548,154.195652 L6.4516129,154.195652 C6.09483871,154.195652 5.80645161,154.512174 5.80645161,154.902174 C5.80645161,155.29288 6.09483871,155.608696 6.4516129,155.608696 L14.1935484,155.608696 C14.5503226,155.608696 14.8387097,155.29288 14.8387097,154.902174 C14.8387097,154.512174 14.5503226,154.195652 14.1935484,154.195652 L12.9032258,154.195652 L12.9032258,151.369565 L17.4193548,151.369565 C18.8445161,151.369565 20,150.104185 20,148.543478 L20,135.826087 C20,134.26538 18.8445161,133 17.4193548,133 L17.4193548,133 Z" id="Fill-143"></path>
        </g>
    </g>
</svg>