
<svg width="20px" height="17px" viewBox="0 0 20 17" version="1.1" xmlns="http://www.w3.org/2000/svg" xmlns:xlink="http://www.w3.org/1999/xlink">
    <g id="Symbols" stroke="none" stroke-width="1" fill="none" fill-rule="evenodd">
        <g id="Contact-deets" transform="translate(0.000000, -46.000000)" fill="currentColor">
            <path d="M18.75,59.8888889 C18.75,60.0298611 18.725625,60.1631944 18.690625,60.2902778 L13.125,53.6388889 L18.75,48.7777778 L18.75,59.8888889 L18.75,59.8888889 Z M2.2225,61.2402778 L7.8625,54.5625 L10,56.3576389 L12.045,54.5513889 L17.7775,61.2402778 C17.688125,61.2631944 2.311875,61.2631944 2.2225,61.2402778 L2.2225,61.2402778 Z M1.25,59.8888889 L1.25,48.7777778 L6.875,53.6388889 L1.309375,60.2902778 C1.274375,60.1631944 1.25,60.0298611 1.25,59.8888889 L1.25,59.8888889 Z M18.125,47.3888889 L10,54.3333333 L1.875,47.3888889 L18.125,47.3888889 L18.125,47.3888889 Z M17.5,46 L2.5,46 C1.119375,46 0,47.24375 0,48.7777778 L0,59.8888889 C0,61.4229167 1.119375,62.6666667 2.5,62.6666667 L17.5,62.6666667 C18.880625,62.6666667 20,61.4229167 20,59.8888889 L20,48.7777778 C20,47.24375 18.880625,46 17.5,46 L17.5,46 Z" id="Fill-186"></path>
        </g>
    </g>
</svg>