
<svg width="20px" height="22px" viewBox="0 0 20 22" version="1.1" xmlns="http://www.w3.org/2000/svg" xmlns:xlink="http://www.w3.org/1999/xlink">
    <g id="Symbols" stroke="none" stroke-width="1" fill="none" fill-rule="evenodd">
        <g id="Contact-deets" transform="translate(0.000000, -3.000000)" fill="currentColor">
            <path d="M18.4783021,8.44447615 C17.3846271,10.7081168 14.9560255,14.1925815 12.9230768,16.4905622 C10.5793957,19.2517832 5.05440731,23.027788 5.05440731,23.027788 C4.62787409,23.2716725 3.44413181,23.2898938 3.11860268,22.9359809 L1.94065045,21.6562881 C1.69746861,21.2133715 1.58810112,20.700373 1.94065045,20.3765953 L4.29719825,18.4563553 C4.69606793,18.1627128 5.14962136,18.1031433 5.47515049,18.4563553 L6.92716479,20.0331948 C7.26877737,19.7717898 12.7229986,15.8780476 15.7569815,10.5174944 L14.2702269,8.90211 C13.9446978,8.54889796 14.0000249,8.05552243 14.2702269,7.62171638 L16.037477,5.06233077 C16.3630061,4.58927894 16.8905434,4.70841792 17.2154292,5.06233077 L18.3940248,6.34202358 C18.8559416,6.81437459 18.7221272,7.91535892 18.4783021,8.44447615 L18.4783021,8.44447615 Z M19.4034224,5.42815752 L17.5518951,3.41681122 C17.0410845,2.86106293 16.2118216,2.86106293 15.7003677,3.41681122 L12.9230768,7.43950382 C12.4991169,8.11999764 12.4122662,8.89510182 12.9230768,9.45085012 L14.0566387,10.6821865 C13.216439,11.9086172 12.2076847,13.245777 11.0721928,14.4792159 C9.78808974,15.8738427 8.35987895,17.1416216 7.07577592,18.1830365 L5.98017097,16.9937491 C5.46936044,16.4380009 4.75589839,16.5319104 4.12864365,16.9937491 L0.425589002,20.0107686 C-0.195232355,20.4768123 -0.0858648622,21.4663666 0.425589002,22.0221149 L2.27711632,24.0327604 C3.30002405,25.144257 4.6298041,24.7882417 5.98017097,24.0327604 C5.98017097,24.0327604 10.0672985,21.5406533 13.566415,17.739419 C16.8577332,14.163848 19.4034224,9.45085012 19.4034224,9.45085012 C19.9341764,7.86490006 20.4263301,6.5389533 19.4034224,5.42815752 L19.4034224,5.42815752 Z" id="Fill-179" transform="translate(10.000000, 13.869565) scale(-1, 1) translate(-10.000000, -13.869565) "></path>
        </g>
    </g>
</svg>