
<svg width="16px" height="24px" viewBox="0 0 16 24" version="1.1" xmlns="http://www.w3.org/2000/svg" xmlns:xlink="http://www.w3.org/1999/xlink">
    <g id="Symbols" stroke="none" stroke-width="1" fill="none" fill-rule="evenodd">
        <g id="Contact-deets" transform="translate(-2.000000, -86.000000)" fill="currentColor">
            <path d="M10,96.8333313 C8.89533333,96.8333313 8,95.863387 8,94.666665 C8,93.469943 8.89533333,92.4999988 10,92.4999988 C11.1046667,92.4999988 12,93.469943 12,94.666665 C12,95.863387 11.1046667,96.8333313 10,96.8333313 L10,96.8333313 Z M10,91.0555546 C8.15933333,91.0555546 6.66666667,92.6718876 6.66666667,94.666665 C6.66666667,96.6614424 8.15933333,98.2777755 10,98.2777755 C11.8406667,98.2777755 13.3333333,96.6614424 13.3333333,94.666665 C13.3333333,92.6718876 11.8406667,91.0555546 10,91.0555546 L10,91.0555546 Z M10,106.94444 C8.89133333,106.95094 3.33333333,97.6862756 3.33333333,94.666665 C3.33333333,90.6785547 6.318,87.4444442 10,87.4444442 C13.682,87.4444442 16.6666667,90.6785547 16.6666667,94.666665 C16.6666667,97.6458311 11.0913333,106.95094 10,106.94444 L10,106.94444 Z M10,86 C5.582,86 2,89.8804993 2,94.666665 C2,98.2907755 8.67,109.119051 10,109.111107 C11.3093333,109.119051 18,98.2416644 18,94.666665 C18,89.8804993 14.418,86 10,86 L10,86 Z" id="Fill-162"></path>
        </g>
    </g>
</svg>